<?xml version="1.0" standalone="no"?>
<!DOCTYPE svg PUBLIC "-//W3C//DTD SVG 1.1//EN" "http://www.w3.org/Graphics/SVG/1.1/DTD/svg11.dtd" >
<svg xmlns="http://www.w3.org/2000/svg" xmlns:xlink="http://www.w3.org/1999/xlink" version="1.1">
<metadata>
Created by FontForge 20170924 at (null) By www-data
Copyright (c) 1999 by Samuel Reynolds. All rights reserved.
</metadata>
<defs>
<font id="LCDMono2Bold" horiz-adv-x="545" >
  <font-face 
    font-family="LCDMono2"
    font-weight="700"
    font-stretch="normal"
    units-per-em="1000"
    panose-1="0 0 7 9 0 0 0 0 0 0"
    ascent="800"
    descent="-200"
    x-height="798"
    cap-height="798"
    bbox="-182 -47 727 847"
    underline-thickness="20"
    underline-position="-143"
    unicode-range="U+0020-2010"
  />
<missing-glyph 
d="M68 0v800h409v-800h-409zM136 68h273v664h-273v-664z" />
    <glyph glyph-name=".notdef" 
d="M68 0v800h409v-800h-409zM136 68h273v664h-273v-664z" />
    <glyph glyph-name=".null" horiz-adv-x="0" 
 />
    <glyph glyph-name="nonmarkingreturn" 
 />
    <glyph glyph-name="space" unicode=" " 
 />
    <glyph glyph-name="exclam" unicode="!" 
d="M268 48l-52 -46l-39 46l52 46zM287 170l-54 -47l-40 47l23 168l54 47l40 -47zM328 462l-54 -47l-40 47l40 289l54 47l40 -47z" />
    <glyph glyph-name="quotedbl" unicode="&#x22;" 
d="M242 605l-53 -47l-41 47l14 96l53 47l41 -47zM383 605l-53 -47l-41 47l14 96l53 47l41 -47z" />
    <glyph glyph-name="dollar" unicode="$" 
d="M97 109l-54 -47l-40 47l3 25l54 47l41 -47zM390 47l-54 -47h-238l-41 47l54 47h58l53 -61l69 61h58zM460 109l-53 -47l-41 47l32 229l54 47l40 -47zM439 400l-53 -47h-58l-41 47l54 47h58zM258 400l-54 -47h-58l-40 47l53 47h58zM148 462l-54 -47l-40 47l32 229l54 47
l40 -47zM489 753l-54 -47h-58l-52 61l-70 -61h-58l-41 47l54 47h238zM539 666l-54 -47l-41 47l4 25l54 47l40 -47zM328 462l-53 -47l-41 47l32 229l54 47l40 -47zM279 109l-54 -47l-40 47l32 229l53 47l41 -47z" />
    <glyph glyph-name="quotesingle" unicode="'" 
d="M313 605l-54 -47l-40 47l13 96l54 47l40 -47z" />
    <glyph glyph-name="parenleft" unicode="(" 
d="M413 753l-53 -47h-36l-40 47l54 47h35zM275 462l-58 -52h-43l39 281l54 47l41 -47zM226 109l-54 -47l-40 47l39 281h43l44 -52zM314 47l-54 -47h-35l-40 47l53 47h36z" />
    <glyph glyph-name="parenright" unicode=")" 
d="M360 753l-53 -47h-36l-40 47l54 47h35zM374 410h-43l-44 52l32 229l54 47l40 -47zM332 109l-54 -47l-41 47l33 229l58 52h43zM261 47l-54 -47h-35l-40 47l53 47h36z" />
    <glyph glyph-name="asterisk" unicode="*" 
d="M264 411h-59l-18 20l8 59h59l18 -21zM366 431l-23 -20h-59l8 58l24 21h59zM350 311h-59l-18 21l8 58h59l18 -20zM253 332l-24 -21h-59l9 59l23 20h59z" />
    <glyph glyph-name="plus" unicode="+" 
d="M328 462l-53 -47l-41 47l10 73l54 47l41 -47zM450 400l-54 -47h-68l-41 47l54 47h68zM258 400l-54 -47h-68l-41 47l54 47h68zM301 265l-54 -47l-41 47l11 73l53 47l41 -47z" />
    <glyph glyph-name="comma" unicode="," 
d="M323 51l-108 -95l20 142l54 47l41 -47z" />
    <glyph glyph-name="hyphen" unicode="&#x2010;" 
d="M439 400l-53 -47h-240l-40 47l53 47h240z" />
    <glyph glyph-name="period" unicode="." 
d="M316 51l-53 -47l-41 47l7 47l53 47l41 -47z" />
    <glyph glyph-name="slash" unicode="/" 
d="M535 716l-205 -306h-46l16 109l189 281h58zM245 281l-189 -281h-58l12 84l205 306h46z" />
    <glyph glyph-name="zero" unicode="0" 
d="M98 109l-54 -47l-40 47l32 229l53 47l41 -47zM147 462l-53 -47l-41 47l32 229l54 47l41 -47zM488 753l-53 -47h-239l-40 47l54 47h238zM509 462l-53 -47l-41 47l32 229l54 47l40 -47zM460 109l-54 -47l-41 47l33 229l53 47l41 -47zM389 47l-54 -47h-238l-40 47l53 47h239
z" />
    <glyph glyph-name="one" unicode="1" 
d="M345 462l-54 -47l-41 47l41 289l54 47l40 -47zM245 599l-52 -44l-33 39l7 48l95 84zM287 49l-54 -47l-42 41l42 295l54 47l40 -47z" />
    <glyph glyph-name="two" unicode="2" 
d="M183 666l-54 -47l-41 47l4 25l54 47l40 -47zM495 753l-54 -47h-238l-41 47l54 47h238zM516 462l-54 -47l-40 47l32 229l54 47l40 -47zM447 400l-54 -47h-240l-40 47l54 47h239zM104 109l-107 -94l46 325l53 47l41 -47zM437 0h-427l107 94h239z" />
    <glyph glyph-name="three" unicode="3" 
d="M497 462l-53 -47l-41 47l33 229l53 47l41 -47zM477 753l-54 -47h-268l-41 47l54 47h268zM427 400l-54 -47h-210l-40 47l54 47h210zM448 109l-54 -47l-40 47l32 229l54 47l40 -47zM377 47l-53 -47h-268l-41 47l54 47h268z" />
    <glyph glyph-name="four" unicode="4" 
d="M480 462l-53 -47l-41 47l41 289l53 47l41 -47zM118 462l-53 -47l-41 47l34 239l54 47l40 -47zM410 400l-54 -47h-239l-41 47l54 47h239zM422 49l-53 -47l-41 47l41 289l53 47l41 -47z" />
    <glyph glyph-name="five" unicode="5" 
d="M542 800l-107 -94h-240l-81 94h428zM148 462l-60 -52h-43l53 375l82 -95zM439 400l-54 -47h-239l-41 47l54 47h240zM460 109l-54 -47l-40 47l32 229l54 47l40 -47zM388 47l-53 -47h-239l-40 47l53 47h239zM97 109l-54 -47l-40 47l3 25l54 47l40 -47z" />
    <glyph glyph-name="six" unicode="6" 
d="M513 753l-54 -47h-238l-40 47l53 47h239zM172 462l-58 -52h-43l39 281l54 47l40 -47zM123 109l-54 -47l-41 47l40 281h43l44 -52zM414 47l-54 -47h-238l-41 47l54 47h238zM484 109l-53 -47l-41 47l32 229l54 47l41 -47zM464 400l-54 -47h-240l-40 47l54 47h239z" />
    <glyph glyph-name="seven" unicode="7" 
d="M518 753l-54 -47h-350l-40 47l53 47h351zM431 511l-72 -101h-46l13 89l127 186h2zM276 291l-191 -291h-58l12 84l205 306h46z" />
    <glyph glyph-name="eight" unicode="8" 
d="M488 753l-53 -47h-239l-40 47l54 47h238zM147 462l-53 -47l-41 47l32 229l54 47l41 -47zM98 109l-54 -47l-40 47l32 229l53 47l41 -47zM389 47l-54 -47h-238l-40 47l53 47h239zM460 109l-54 -47l-41 47l33 229l53 47l41 -47zM509 462l-53 -47l-41 47l32 229l54 47l40 -47
zM439 400l-54 -47h-239l-41 47l54 47h239z" />
    <glyph glyph-name="nine" unicode="9" 
d="M364 47l-53 -47h-239l-40 47l54 47h238zM435 109l-54 -47l-40 47l32 229l58 52h43zM477 410h-43l-44 52l32 229l54 47l41 -47zM464 753l-54 -47h-238l-41 47l54 47h238zM123 462l-54 -47l-41 47l33 229l53 47l41 -47zM415 400l-54 -47h-239l-41 47l54 47h240z" />
    <glyph glyph-name="colon" unicode=":" 
d="M333 291l-53 -47l-41 47l7 47l53 47l41 -47zM299 49l-53 -47l-41 47l7 48l53 47l41 -47z" />
    <glyph glyph-name="semicolon" unicode=";" 
d="M340 291l-54 -47l-40 47l6 47l54 47l40 -47zM306 51l-107 -95l20 142l53 47l41 -47z" />
    <glyph glyph-name="less" unicode="&#x3c;" 
d="M340 551l-88 -141h-55l13 89l151 216h2zM275 85h-2l-91 216l12 89h55l49 -141z" />
    <glyph glyph-name="equal" unicode="=" 
d="M464 395l-54 -47h-239l-41 47l54 48h239zM415 47l-54 -47h-239l-41 47l54 47h239z" />
    <glyph glyph-name="greater" unicode="&#x3e;" 
d="M351 410h-55l-49 141l23 164h2l91 -216zM335 301l-151 -216h-2l23 164l88 141h55z" />
    <glyph glyph-name="question" unicode="?" 
d="M408 758l-60 -52h-228l-40 47l53 47h239zM433 462l-54 -47l-49 57l31 219l60 52l44 -52zM363 400l-54 -47h-58l-41 47l66 57h37zM211 173l-54 -47l-40 47l23 165l54 47l40 -47zM194 49l-54 -47l-41 47l54 47z" />
    <glyph glyph-name="A" unicode="A" 
d="M92 49l-54 -47l-40 47l47 341h43l44 -52zM151 462l-59 -52h-44l40 280l55 48l40 -47zM493 753l-54 -47h-238l-40 47l53 47h239zM508 410h-44l-44 52l32 229l55 48l40 -48zM457 49l-53 -47l-41 47l41 289l58 52h43zM444 400l-54 -47h-240l-40 47l54 47h239z" />
    <glyph glyph-name="B" unicode="B" 
d="M104 109l-108 -94l53 375h43l44 -52zM153 462l-58 -52h-43l53 375l81 -94zM496 753l-54 -47h-240l-81 94h334zM516 462l-53 -47l-41 47l32 229l54 47l41 -47zM446 400l-54 -47h-239l-41 47l54 47h239zM467 109l-54 -47l-40 47l32 229l54 47l40 -47zM396 47l-53 -47h-334
l107 94h240z" />
    <glyph glyph-name="C" unicode="C" 
d="M538 666l-54 -47l-40 47l3 25l54 47l40 -47zM488 753l-53 -47h-239l-40 47l54 47h238zM147 462l-58 -52h-43l39 281l54 47l41 -47zM98 109l-54 -47l-40 47l39 281h43l44 -52zM389 47l-54 -47h-238l-40 47l53 47h239zM460 109l-54 -47l-41 47l4 25l54 47l40 -47z" />
    <glyph glyph-name="D" unicode="D" 
d="M104 109l-108 -94l53 375h43l44 -52zM153 462l-58 -52h-43l53 375l81 -94zM496 753l-54 -47h-240l-81 94h334zM509 410h-43l-44 52l32 229l54 47l41 -47zM467 109l-54 -47l-40 47l32 229l59 52h42zM396 47l-53 -47h-334l107 94h240z" />
    <glyph glyph-name="E" unicode="E" 
d="M515 753l-54 -47h-238l-41 47l54 47h238zM174 462l-59 -52h-42l39 281l54 47l40 -47zM406 400l-54 -47h-180l-40 47l53 47h181zM124 109l-53 -47l-41 47l40 281h42l45 -52zM416 47l-54 -47h-238l-41 47l54 47h238z" />
    <glyph glyph-name="F" unicode="F" 
d="M519 753l-54 -47h-238l-40 47l53 47h239zM178 462l-58 -52h-43l39 281l54 47l40 -47zM410 400l-53 -47h-181l-40 47l54 47h180zM120 48l-54 -47l-40 47l48 342h43l44 -52z" />
    <glyph glyph-name="G" unicode="G" 
d="M507 753l-54 -47h-238l-41 47l54 47h238zM166 462l-59 -52h-43l40 281l53 47l41 -47zM116 109l-54 -47l-40 47l39 281h43l44 -52zM407 47l-53 -47h-239l-40 47l54 47h238zM478 109l-54 -47l-40 47l32 229l107 94zM511 447l-108 -94h-58l-40 47l53 47h153z" />
    <glyph glyph-name="H" unicode="H" 
d="M502 410h-43l-44 52l41 289l53 47l41 -47zM147 462l-58 -52h-43l48 341l53 47l41 -47zM439 400l-54 -47h-239l-41 47l54 47h239zM451 49l-53 -47l-41 47l41 289l58 52h43zM89 49l-53 -47l-41 47l48 341h43l44 -52z" />
    <glyph glyph-name="I" unicode="I" 
d="M328 462l-53 -47l-41 47l41 289l53 47l41 -47zM270 49l-53 -47l-41 47l41 289l53 47l41 -47z" />
    <glyph glyph-name="J" unicode="J" 
d="M489 753l-54 -47h-58l-40 47l54 47h57zM503 410h-43l-44 52l32 229l54 47l40 -47zM460 109l-53 -47l-41 47l32 229l59 52h43zM389 47l-54 -47h-238l-41 47l54 47h238zM97 109l-54 -47l-40 47l3 25l54 47l41 -47z" />
    <glyph glyph-name="K" unicode="K" 
d="M535 707l-214 -297h-42l-34 40l255 350h48zM149 462l-59 -52h-43l48 341l54 47l40 -47zM259 400l-54 -47h-58l-40 47l53 47h58zM436 0h-49l-156 350l45 40h42l131 -297zM91 49l-54 -47l-40 47l48 341h42l44 -52z" />
    <glyph glyph-name="L" unicode="L" 
d="M223 462l-58 -52h-43l48 341l54 47l40 -47zM174 109l-54 -47l-40 47l39 281h43l44 -52zM465 47l-53 -47h-239l-40 47l54 47h238z" />
    <glyph glyph-name="M" unicode="M" 
d="M-87 49l-54 -47l-41 47l48 341h43l44 -52zM-29 462l-59 -52h-43l40 281l53 47l41 -47zM312 753l-54 -47h-238l-41 47l54 47h238zM332 462l-53 -47l-41 47l33 229l53 47l41 -47zM274 49l-53 -47l-41 47l41 289l54 47l40 -47zM673 753l-53 -47h-239l-40 47l54 47h238z
M687 410h-43l-44 52l32 229l54 47l41 -47zM636 49l-53 -47l-41 47l41 289l58 52h43z" />
    <glyph glyph-name="N" unicode="N" 
d="M89 49l-53 -47l-41 47l48 341h43l44 -52zM147 462l-58 -52h-43l48 341l53 47l41 -47zM395 465h-55l-148 172l15 111h27l172 -201zM502 410h-43l-44 52l41 289l53 47l41 -47zM451 49l-53 -47l-41 47l41 289l58 52h43z" />
    <glyph glyph-name="O" unicode="O" 
d="M98 109l-54 -47l-40 47l39 281h43l44 -52zM147 462l-58 -52h-43l39 281l54 47l41 -47zM488 753l-53 -47h-239l-40 47l54 47h238zM502 410h-43l-44 52l32 229l54 47l40 -47zM460 109l-54 -47l-41 47l33 229l58 52h43zM389 47l-54 -47h-238l-40 47l53 47h239z" />
    <glyph glyph-name="P" unicode="P" 
d="M515 462l-54 -47l-41 47l33 229l53 47l41 -47zM494 753l-54 -47h-239l-81 94h333zM152 462l-59 -52h-43l53 375l81 -94zM444 400l-54 -47h-239l-41 47l54 47h240zM92 49l-53 -47l-41 47l48 341h43l44 -52z" />
    <glyph glyph-name="Q" unicode="Q" 
d="M98 109l-54 -47l-40 47l39 281h43l44 -52zM147 462l-58 -52h-43l39 281l54 47l41 -47zM488 753l-53 -47h-239l-40 47l54 47h238zM502 410h-43l-44 52l32 229l54 47l40 -47zM460 109l-54 -47l-41 47l33 229l58 52h43zM389 47l-54 -47h-238l-40 47l53 47h239zM345 127
l-68 81l20 144l68 -85z" />
    <glyph glyph-name="R" unicode="R" 
d="M515 462l-54 -47l-41 47l33 229l53 47l41 -47zM494 753l-54 -47h-239l-81 94h333zM152 462l-59 -52h-43l53 375l81 -94zM444 400l-54 -47h-239l-41 47l54 47h240zM450 0h-90l-212 292l6 40h86l215 -295zM92 49l-53 -47l-41 47l48 341h43l44 -52z" />
    <glyph glyph-name="S" unicode="S" 
d="M539 666l-54 -47l-41 47l4 25l54 47l40 -47zM489 753l-54 -47h-238l-41 47l54 47h238zM148 462l-54 -47l-40 47l32 229l54 47l40 -47zM439 400l-53 -47h-240l-40 47l53 47h240zM460 109l-53 -47l-41 47l32 229l54 47l40 -47zM389 47l-54 -47h-238l-41 47l54 47h238z
M97 109l-54 -47l-40 47l3 25l54 47l41 -47z" />
    <glyph glyph-name="T" unicode="T" 
d="M488 753l-53 -47h-108l-53 61l-69 -61h-108l-40 47l53 47h338zM278 462l-54 -47l-40 47l32 229l54 47l40 -47zM220 49l-54 -47l-40 47l41 289l53 47l41 -47z" />
    <glyph glyph-name="U" unicode="U" 
d="M143 462l-58 -52h-43l48 341l53 47l41 -47zM94 109l-54 -47l-41 47l40 281h43l44 -52zM385 47l-54 -47h-238l-41 47l54 47h238zM455 109l-53 -47l-41 47l32 229l59 52h43zM498 410h-43l-44 52l40 289l54 47l41 -47z" />
    <glyph glyph-name="V" unicode="V" 
d="M482 410h-78l-12 31l43 310l54 47l41 -47zM124 441l-21 -31h-77l48 341l53 47l41 -47zM473 346l-232 -346h-35l18 129l166 261h89zM185 0h-35l-135 346l7 44h88l93 -261z" />
    <glyph glyph-name="W" unicode="W" 
d="M-38 462l-58 -52h-43l48 341l53 47l41 -47zM-87 109l-54 -47l-41 47l40 281h43l44 -52zM204 47l-54 -47h-238l-40 47l53 47h239zM274 109l-53 -47l-41 47l33 229l53 47l41 -47zM324 462l-54 -47l-40 47l41 289l53 47l41 -47zM566 47l-54 -47h-238l-41 47l54 47h238z
M636 109l-53 -47l-41 47l32 229l59 52h43zM679 410h-43l-44 52l40 289l54 47l41 -47z" />
    <glyph glyph-name="X" unicode="X" 
d="M534 706l-194 -296h-56l14 99l191 291h58zM264 410h-56l-111 296l13 94h59l108 -291zM435 0h-59l-108 290l13 100h56l111 -296zM247 290l-191 -290h-58l13 94l194 296h56z" />
    <glyph glyph-name="Y" unicode="Y" 
d="M141 462l-53 -47l-41 47l41 289l53 47l41 -47zM433 400l-54 -47h-239l-41 47l54 47h239zM503 462l-53 -47l-41 47l41 289l53 47l41 -47zM454 109l-54 -47l-41 47l33 229l53 47l41 -47zM383 47l-54 -47h-287l-41 47l54 47h288z" />
    <glyph glyph-name="Z" unicode="Z" 
d="M509 753l-53 -47h-259l-41 47l54 47h259zM436 540l-106 -130h-46l14 99l136 176h22zM247 291l-136 -176h-22l20 144l106 131h46zM390 47l-54 -47h-260l-40 47l53 47h260z" />
    <glyph glyph-name="bracketleft" unicode="[" 
d="M444 777l-82 -71h-58l-81 94h224zM255 462l-58 -52h-43l52 375l81 -94zM206 109l-108 -94l53 375h43l44 -52zM334 0h-223l107 94h58l62 -71z" />
    <glyph glyph-name="backslash" unicode="\" 
d="M264 410h-46l-120 306l12 84h59l110 -281zM435 0h-59l-110 281l15 109h46l120 -306z" />
    <glyph glyph-name="bracketright" unicode="]" 
d="M434 800l-107 -94h-58l-62 71l4 23h223zM394 410h-43l-44 52l32 229l108 94zM339 15l-81 94l32 229l58 52h43zM322 0h-224l3 23l82 71h58z" />
    <glyph glyph-name="underscore" unicode="_" 
d="M439 47l-53 -47h-240l-40 47l53 47h240z" />
    <glyph glyph-name="a" unicode="a" 
d="M92 49l-54 -47l-40 47l47 341h43l44 -52zM151 462l-59 -52h-44l40 280l55 48l40 -47zM493 753l-54 -47h-238l-40 47l53 47h239zM508 410h-44l-44 52l32 229l55 48l40 -48zM457 49l-53 -47l-41 47l41 289l58 52h43zM444 400l-54 -47h-240l-40 47l54 47h239z" />
    <glyph glyph-name="b" unicode="b" 
d="M104 109l-108 -94l53 375h43l44 -52zM153 462l-58 -52h-43l53 375l81 -94zM496 753l-54 -47h-240l-81 94h334zM516 462l-53 -47l-41 47l32 229l54 47l41 -47zM446 400l-54 -47h-239l-41 47l54 47h239zM467 109l-54 -47l-40 47l32 229l54 47l40 -47zM396 47l-53 -47h-334
l107 94h240z" />
    <glyph glyph-name="c" unicode="c" 
d="M538 666l-54 -47l-40 47l3 25l54 47l40 -47zM488 753l-53 -47h-239l-40 47l54 47h238zM147 462l-58 -52h-43l39 281l54 47l41 -47zM98 109l-54 -47l-40 47l39 281h43l44 -52zM389 47l-54 -47h-238l-40 47l53 47h239zM460 109l-54 -47l-41 47l4 25l54 47l40 -47z" />
    <glyph glyph-name="d" unicode="d" 
d="M104 109l-108 -94l53 375h43l44 -52zM153 462l-58 -52h-43l53 375l81 -94zM496 753l-54 -47h-240l-81 94h334zM509 410h-43l-44 52l32 229l54 47l41 -47zM467 109l-54 -47l-40 47l32 229l59 52h42zM396 47l-53 -47h-334l107 94h240z" />
    <glyph glyph-name="e" unicode="e" 
d="M515 753l-54 -47h-238l-41 47l54 47h238zM174 462l-59 -52h-42l39 281l54 47l40 -47zM406 400l-54 -47h-180l-40 47l53 47h181zM124 109l-53 -47l-41 47l40 281h42l45 -52zM416 47l-54 -47h-238l-41 47l54 47h238z" />
    <glyph glyph-name="f" unicode="f" 
d="M519 753l-54 -47h-238l-40 47l53 47h239zM178 462l-58 -52h-43l39 281l54 47l40 -47zM410 400l-53 -47h-181l-40 47l54 47h180zM120 48l-54 -47l-40 47l48 342h43l44 -52z" />
    <glyph glyph-name="g" unicode="g" 
d="M507 753l-54 -47h-238l-41 47l54 47h238zM166 462l-59 -52h-43l40 281l53 47l41 -47zM116 109l-54 -47l-40 47l39 281h43l44 -52zM407 47l-53 -47h-239l-40 47l54 47h238zM478 109l-54 -47l-40 47l32 229l107 94zM511 447l-108 -94h-58l-40 47l53 47h153z" />
    <glyph glyph-name="h" unicode="h" 
d="M502 410h-43l-44 52l41 289l53 47l41 -47zM147 462l-58 -52h-43l48 341l53 47l41 -47zM439 400l-54 -47h-239l-41 47l54 47h239zM451 49l-53 -47l-41 47l41 289l58 52h43zM89 49l-53 -47l-41 47l48 341h43l44 -52z" />
    <glyph glyph-name="i" unicode="i" 
d="M328 462l-53 -47l-41 47l41 289l53 47l41 -47zM270 49l-53 -47l-41 47l41 289l53 47l41 -47z" />
    <glyph glyph-name="j" unicode="j" 
d="M498 410h-43l-44 52l41 291l54 47l40 -47zM456 109l-54 -47l-40 47l32 229l59 52h42zM384 47l-54 -47h-238l-40 47l53 47h239zM93 109l-54 -47l-40 47l3 25l54 47l40 -47z" />
    <glyph glyph-name="k" unicode="k" 
d="M535 707l-214 -297h-42l-34 40l255 350h48zM149 462l-59 -52h-43l48 341l54 47l40 -47zM259 400l-54 -47h-58l-40 47l53 47h58zM436 0h-49l-156 350l45 40h42l131 -297zM91 49l-54 -47l-40 47l48 341h42l44 -52z" />
    <glyph glyph-name="l" unicode="l" 
d="M223 462l-58 -52h-43l48 341l54 47l40 -47zM174 109l-54 -47l-40 47l39 281h43l44 -52zM465 47l-53 -47h-239l-40 47l54 47h238z" />
    <glyph glyph-name="m" unicode="m" 
d="M503 410h-43l-44 52l41 291l54 47l40 -47zM403 522l-83 -112h-36l14 100l128 187h2zM263 410h-36l-52 112l24 175h2l76 -187zM147 462l-59 -52h-43l48 343l54 47l41 -47zM452 47l-54 -47l-41 47l41 291l59 52h43zM88 47l-54 -47l-40 47l48 343h43l44 -52z" />
    <glyph glyph-name="n" unicode="n" 
d="M89 49l-53 -47l-41 47l48 341h43l44 -52zM147 462l-58 -52h-43l48 341l53 47l41 -47zM395 465h-55l-148 172l15 111h27l172 -201zM502 410h-43l-44 52l41 289l53 47l41 -47zM451 49l-53 -47l-41 47l41 289l58 52h43z" />
    <glyph glyph-name="o" unicode="o" 
d="M98 109l-54 -47l-40 47l39 281h43l44 -52zM147 462l-58 -52h-43l39 281l54 47l41 -47zM488 753l-53 -47h-239l-40 47l54 47h238zM502 410h-43l-44 52l32 229l54 47l40 -47zM460 109l-54 -47l-41 47l33 229l58 52h43zM389 47l-54 -47h-238l-40 47l53 47h239z" />
    <glyph glyph-name="p" unicode="p" 
d="M515 462l-54 -47l-41 47l33 229l53 47l41 -47zM494 753l-54 -47h-239l-81 94h333zM152 462l-59 -52h-43l53 375l81 -94zM444 400l-54 -47h-239l-41 47l54 47h240zM92 49l-53 -47l-41 47l48 341h43l44 -52z" />
    <glyph glyph-name="q" unicode="q" 
d="M98 109l-54 -47l-40 47l39 281h43l44 -52zM147 462l-58 -52h-43l39 281l54 47l41 -47zM488 753l-53 -47h-239l-40 47l54 47h238zM502 410h-43l-44 52l32 229l54 47l40 -47zM460 109l-54 -47l-41 47l33 229l58 52h43zM389 47l-54 -47h-238l-40 47l53 47h239zM345 127
l-68 81l20 144l68 -85z" />
    <glyph glyph-name="r" unicode="r" 
d="M515 462l-54 -47l-41 47l33 229l53 47l41 -47zM494 753l-54 -47h-239l-81 94h333zM152 462l-59 -52h-43l53 375l81 -94zM444 400l-54 -47h-239l-41 47l54 47h240zM450 0h-90l-212 292l6 40h86l215 -295zM92 49l-53 -47l-41 47l48 341h43l44 -52z" />
    <glyph glyph-name="s" unicode="s" 
d="M539 666l-54 -47l-41 47l4 25l54 47l40 -47zM489 753l-54 -47h-238l-41 47l54 47h238zM148 462l-54 -47l-40 47l32 229l54 47l40 -47zM439 400l-53 -47h-240l-40 47l53 47h240zM460 109l-53 -47l-41 47l32 229l54 47l40 -47zM389 47l-54 -47h-238l-41 47l54 47h238z
M97 109l-54 -47l-40 47l3 25l54 47l41 -47z" />
    <glyph glyph-name="t" unicode="t" 
d="M488 753l-53 -47h-108l-53 61l-69 -61h-108l-40 47l53 47h338zM278 462l-54 -47l-40 47l32 229l54 47l40 -47zM220 49l-54 -47l-40 47l41 289l53 47l41 -47z" />
    <glyph glyph-name="u" unicode="u" 
d="M143 462l-58 -52h-43l48 341l53 47l41 -47zM94 109l-54 -47l-41 47l40 281h43l44 -52zM385 47l-54 -47h-238l-41 47l54 47h238zM455 109l-53 -47l-41 47l32 229l59 52h43zM498 410h-43l-44 52l40 289l54 47l41 -47z" />
    <glyph glyph-name="v" unicode="v" 
d="M482 410h-78l-12 31l43 310l54 47l41 -47zM124 441l-21 -31h-77l48 341l53 47l41 -47zM473 346l-232 -346h-35l18 129l166 261h89zM185 0h-35l-135 346l7 44h88l93 -261z" />
    <glyph glyph-name="w" unicode="w" 
d="M503 410h-43l-44 51l40 290l54 48l41 -48zM147 461l-59 -51h-43l48 341l54 48l41 -48zM452 47l-54 -47l-41 47l41 290l59 52h43zM344 103h-2l-75 186l14 100h36l52 -111zM246 289l-128 -186h-2l25 175l83 111h36zM89 47l-54 -47l-41 47l48 342h43l44 -52z" />
    <glyph glyph-name="x" unicode="x" 
d="M534 706l-194 -296h-56l14 99l191 291h58zM264 410h-56l-111 296l13 94h59l108 -291zM435 0h-59l-108 290l13 100h56l111 -296zM247 290l-191 -290h-58l13 94l194 296h56z" />
    <glyph glyph-name="y" unicode="y" 
d="M497 736l-199 -327h-66l13 90l182 301h79zM212 409h-66l-107 327l9 64h79l97 -301zM218 47l-53 -47l-41 47l41 290l54 47l40 -47z" />
    <glyph glyph-name="z" unicode="z" 
d="M509 753l-53 -47h-259l-41 47l54 47h259zM436 540l-106 -130h-46l14 99l136 176h22zM247 291l-136 -176h-22l20 144l106 131h46zM390 47l-54 -47h-260l-40 47l53 47h260z" />
    <glyph glyph-name="bar" unicode="|" 
d="M328 462l-53 -47l-41 47l48 338l53 47l41 -47zM263 0l-53 -47l-41 47l48 338l53 47l41 -47z" />
    <glyph glyph-name="nonbreakingspace" unicode="&#xa0;" 
 />
  </font>
</defs>
</svg>
